<?xml version="1.0"?>
<svg xmlns="http://www.w3.org/2000/svg" xmlns:xlink="http://www.w3.org/1999/xlink" xmlns:svgjs="http://svgjs.com/svgjs" version="1.1" width="512" height="512" x="0" y="0" viewBox="0 0 512 512" style="enable-background:new 0 0 512 512" xml:space="preserve" class=""><g><linearGradient xmlns="http://www.w3.org/2000/svg" id="SVGID_1_" gradientUnits="userSpaceOnUse" x1="256" x2="256" y1="421" y2="91"><stop stop-opacity="1" stop-color="#803a00" offset="0" style="--darkreader-inline-stopcolor:#662e00;" data-darkreader-inline-stopcolor=""/><stop stop-opacity="1" stop-color="#dd9323" offset="1" style="--darkreader-inline-stopcolor:#b0751b;" data-darkreader-inline-stopcolor=""/></linearGradient><g xmlns="http://www.w3.org/2000/svg"><g><path d="m406.153 211.002-15.303-107.123c-1.056-7.39-7.385-12.879-14.85-12.879h-60c-8.284 0-15 6.716-15 15s6.716 15 15 15h46.99l4.286 30h-161.121l-12-30h31.845c8.284 0 15-6.716 15-15s-6.716-15-15-15c-21.18 0-74.204 0-90 0-8.284 0-15 6.716-15 15s6.716 15 15 15h25.845l17.465 43.663-32.705 54.509c-12.498-5.261-26.218-8.172-40.605-8.172-58.448 0-106 47.103-106 105s47.552 105 106 105c52.805 0 96.623-39.184 103.924-90h45.987c.025 0 .05.002.074.002 5.381 0 10.248-2.904 12.877-7.285l85.631-142.717h17.069l4.891 34.239c-43.557 12.794-75.453 53.12-75.453 100.761 0 57.897 47.103 105 105 105 58.448 0 106-47.103 106-105 0-57.846-47.469-104.916-105.847-104.998zm-300.153 179.998c-41.906 0-76-33.645-76-75s34.094-75 76-75c8.742 0 17.132 1.518 24.939 4.28l-37.802 63.003c-2.78 4.634-2.854 10.405-.19 15.108 2.662 4.703 7.648 7.609 13.053 7.6h73.491c-6.969 34.201-37.271 60.009-73.491 60.009zm26.493-90 24.155-40.259c11.441 10.495 19.627 24.482 22.843 40.259zm77.431 0c-3.827-26.638-17.687-50.077-37.619-66.353l20.999-34.999 40.541 101.352zm48.772-18.648-40.541-101.352h101.352zm147.304 108.648c-41.355 0-75-33.645-75-75 0-32.501 20.786-60.23 49.759-70.618l10.391 72.739c1.177 8.236 8.809 13.898 16.971 12.728 8.201-1.171 13.899-8.77 12.729-16.97l-10.391-72.739c39.837 2.286 71.541 34.983 71.541 74.86 0 41.355-34.094 75-76 75z" fill="url(#SVGID_1_)" data-original="url(#SVGID_1_)" style=""/></g></g></g></svg>
